<?xml version="1.0" encoding="UTF-8" standalone="no"?>
<!-- Created with Inkscape (http://www.inkscape.org/) -->

<svg
   version="1.1"
   id="svg1"
   width="15.24mm"
   height="128.5mm"
   viewBox="0 0 57.599999 485.66929"
   sodipodi:docname="• QNT faceplates.pdf"
   xmlns:inkscape="http://www.inkscape.org/namespaces/inkscape"
   xmlns:sodipodi="http://sodipodi.sourceforge.net/DTD/sodipodi-0.dtd"
   xmlns="http://www.w3.org/2000/svg"
   xmlns:svg="http://www.w3.org/2000/svg">
  <defs
     id="defs1">
    <linearGradient
       x1="0"
       y1="0"
       x2="1"
       y2="0"
       gradientUnits="userSpaceOnUse"
       gradientTransform="matrix(0,363.25195,363.25195,0,21.598877,0.5000154)"
       spreadMethod="pad"
       id="linearGradient2">
      <stop
         style="stop-opacity:1;stop-color:#e2e3e3"
         offset="0"
         id="stop1" />
      <stop
         style="stop-opacity:1;stop-color:#ecedee"
         offset="1"
         id="stop2" />
    </linearGradient>
    <clipPath
       clipPathUnits="userSpaceOnUse"
       id="clipPath11">
      <path
         d="M 0,364.252 H 43.2 V 0 H 0 Z"
         transform="translate(-13.179201,-19.6462)"
         id="path11" />
    </clipPath>
    <clipPath
       clipPathUnits="userSpaceOnUse"
       id="clipPath13">
      <path
         d="M 0,364.252 H 43.2 V 0 H 0 Z"
         transform="translate(-24.6196,-19.6462)"
         id="path13" />
    </clipPath>
    <clipPath
       clipPathUnits="userSpaceOnUse"
       id="clipPath15">
      <path
         d="M 0,364.252 H 43.2 V 0 H 0 Z"
         transform="translate(-33.149901,-19.762098)"
         id="path15" />
    </clipPath>
    <clipPath
       clipPathUnits="userSpaceOnUse"
       id="clipPath17">
      <path
         d="M 0,364.252 H 43.2 V 0 H 0 Z"
         transform="translate(-35.403301,-33.499503)"
         id="path17" />
    </clipPath>
    <clipPath
       clipPathUnits="userSpaceOnUse"
       id="clipPath19">
      <path
         d="M 0,364.252 H 43.2 V 0 H 0 Z"
         transform="translate(-16.677501,-48.923899)"
         id="path19" />
    </clipPath>
    <clipPath
       clipPathUnits="userSpaceOnUse"
       id="clipPath21">
      <path
         d="M 0,364.252 H 43.2 V 0 H 0 Z"
         transform="translate(-26.5225,-48.923899)"
         id="path21" />
    </clipPath>
    <clipPath
       clipPathUnits="userSpaceOnUse"
       id="clipPath23">
      <path
         d="M 0,364.252 H 43.2 V 0 H 0 Z"
         transform="translate(-21.600001,-81.426702)"
         id="path23" />
    </clipPath>
  </defs>
  <sodipodi:namedview
     id="namedview1"
     pagecolor="#505050"
     bordercolor="#ffffff"
     borderopacity="1"
     inkscape:showpageshadow="0"
     inkscape:pageopacity="0"
     inkscape:pagecheckerboard="1"
     inkscape:deskcolor="#505050"
     inkscape:document-units="mm" />
  <g
     id="g1"
     inkscape:groupmode="layer"
     inkscape:label="1">
    <path
       id="path2"
       d="M 0.531,0.5 H 42.666 V 363.752 H 0.531 Z"
       transform="matrix(1.3333333,0,0,-1.3333333,0,485.66933)"
       style="fill:url(#linearGradient2);stroke:none" />
    <path
       id="path3"
       d="M 0.031,0 H 43.166 V 364.252 H 0.031 Z m 1,363.252 H 42.166 V 1 H 1.031 Z"
       style="fill:#b2b2b2;fill-opacity:1;fill-rule:nonzero;stroke:none"
       transform="matrix(1.3333333,0,0,-1.3333333,0,485.66933)" />
    <path
       id="path4"
       d="M 0,0 5.446,-5.446"
       style="fill:none;stroke:#231f20;stroke-width:0.25;stroke-linecap:butt;stroke-linejoin:miter;stroke-miterlimit:10;stroke-dasharray:none;stroke-opacity:1"
       transform="matrix(1.3333333,0,0,-1.3333333,25.169467,5.9166667)" />
    <path
       id="path5"
       d="M 0,0 -5.446,-5.446"
       style="fill:none;stroke:#231f20;stroke-width:0.25;stroke-linecap:butt;stroke-linejoin:miter;stroke-miterlimit:10;stroke-dasharray:none;stroke-opacity:1"
       transform="matrix(1.3333333,0,0,-1.3333333,32.430533,5.9166667)" />
    <path
       id="path6"
       d="M 0,0 5.446,-5.446"
       style="fill:none;stroke:#231f20;stroke-width:0.25;stroke-linecap:butt;stroke-linejoin:miter;stroke-miterlimit:10;stroke-dasharray:none;stroke-opacity:1"
       transform="matrix(1.3333333,0,0,-1.3333333,25.169467,472.4592)" />
    <path
       id="path7"
       d="M 0,0 -5.446,-5.446"
       style="fill:none;stroke:#231f20;stroke-width:0.25;stroke-linecap:butt;stroke-linejoin:miter;stroke-miterlimit:10;stroke-dasharray:none;stroke-opacity:1"
       transform="matrix(1.3333333,0,0,-1.3333333,32.430533,472.4592)" />
    <path
       id="path8"
       d="M 0,0 9.845,-9.845"
       style="fill:none;stroke:#6abd45;stroke-width:0.25;stroke-linecap:butt;stroke-linejoin:miter;stroke-miterlimit:10;stroke-dasharray:none;stroke-opacity:1"
       transform="matrix(1.3333333,0,0,-1.3333333,22.236667,358.57867)" />
    <path
       id="path9"
       d="M 0,0 -9.845,-9.845"
       style="fill:none;stroke:#6abd45;stroke-width:0.25;stroke-linecap:butt;stroke-linejoin:miter;stroke-miterlimit:10;stroke-dasharray:none;stroke-opacity:1"
       transform="matrix(1.3333333,0,0,-1.3333333,35.363333,358.57867)" />
    <path
       id="path10"
       d="m 0,0 c -0.415,0 -0.789,0.095 -1.123,0.285 -0.334,0.189 -0.596,0.449 -0.785,0.78 -0.19,0.33 -0.285,0.71 -0.285,1.139 v 3.395 c 0,0.126 -0.032,0.242 -0.095,0.348 C -2.351,6.052 -2.436,6.137 -2.541,6.2 -2.647,6.263 -2.762,6.295 -2.889,6.295 -3.016,6.295 -3.13,6.263 -3.232,6.2 -3.334,6.137 -3.416,6.052 -3.479,5.947 -3.543,5.841 -3.574,5.725 -3.574,5.599 V 0.116 h -1.508 v 5.303 c 0,0.408 0.091,0.777 0.274,1.108 0.183,0.33 0.439,0.595 0.77,0.796 0.33,0.2 0.713,0.3 1.149,0.3 0.443,0 0.829,-0.1 1.16,-0.3 0.33,-0.201 0.587,-0.466 0.77,-0.796 0.182,-0.331 0.274,-0.7 0.274,-1.108 V 2.024 c 0,-0.126 0.031,-0.242 0.095,-0.347 0.063,-0.106 0.145,-0.19 0.247,-0.254 C -0.241,1.36 -0.126,1.329 0,1.329 c 0.127,0 0.243,0.031 0.348,0.094 0.106,0.064 0.19,0.148 0.253,0.254 0.063,0.105 0.095,0.221 0.095,0.347 v 3.395 c 0,0.408 0.091,0.777 0.274,1.108 0.183,0.33 0.441,0.595 0.775,0.796 0.334,0.2 0.719,0.3 1.155,0.3 0.443,0 0.828,-0.1 1.154,-0.3 C 4.381,7.122 4.636,6.857 4.819,6.527 5.002,6.196 5.093,5.827 5.093,5.419 V 0.116 H 3.585 v 5.483 c 0,0.126 -0.03,0.242 -0.09,0.348 C 3.436,6.052 3.353,6.137 3.248,6.2 3.142,6.263 3.026,6.295 2.9,6.295 2.773,6.295 2.657,6.263 2.552,6.2 2.446,6.137 2.362,6.052 2.299,5.947 2.235,5.841 2.204,5.725 2.204,5.599 V 2.204 C 2.204,1.775 2.107,1.395 1.914,1.065 1.721,0.734 1.459,0.474 1.128,0.285 0.798,0.095 0.422,0 0,0"
       style="fill:#231f20;fill-opacity:1;fill-rule:nonzero;stroke:none"
       transform="matrix(1.3333333,0,0,-1.3333333,17.572267,459.4744)"
       clip-path="url(#clipPath11)" />
    <path
       id="path12"
       d="m 0,0 c -0.415,0 -0.789,0.095 -1.123,0.285 -0.334,0.189 -0.596,0.449 -0.785,0.78 -0.19,0.33 -0.285,0.71 -0.285,1.139 v 3.395 c 0,0.126 -0.032,0.242 -0.095,0.348 C -2.351,6.052 -2.436,6.137 -2.541,6.2 -2.647,6.263 -2.762,6.295 -2.889,6.295 -3.016,6.295 -3.13,6.263 -3.232,6.2 -3.334,6.137 -3.416,6.052 -3.48,5.947 -3.543,5.841 -3.575,5.725 -3.575,5.599 V 0.116 h -1.507 v 5.303 c 0,0.408 0.091,0.777 0.274,1.108 0.183,0.33 0.439,0.595 0.77,0.796 0.33,0.2 0.713,0.3 1.149,0.3 0.443,0 0.829,-0.1 1.16,-0.3 0.33,-0.201 0.587,-0.466 0.77,-0.796 0.182,-0.331 0.274,-0.7 0.274,-1.108 V 2.024 c 0,-0.126 0.031,-0.242 0.095,-0.347 0.063,-0.106 0.145,-0.19 0.247,-0.254 C -0.241,1.36 -0.126,1.329 0,1.329 c 0.127,0 0.243,0.031 0.348,0.094 0.106,0.064 0.19,0.148 0.253,0.254 0.063,0.105 0.095,0.221 0.095,0.347 v 3.395 c 0,0.408 0.091,0.777 0.274,1.108 0.183,0.33 0.441,0.595 0.775,0.796 0.334,0.2 0.719,0.3 1.155,0.3 0.443,0 0.828,-0.1 1.154,-0.3 C 4.381,7.122 4.636,6.857 4.819,6.527 5.002,6.196 5.093,5.827 5.093,5.419 V 0.116 H 3.585 v 5.483 c 0,0.126 -0.03,0.242 -0.09,0.348 C 3.436,6.052 3.353,6.137 3.248,6.2 3.142,6.263 3.026,6.295 2.9,6.295 2.773,6.295 2.657,6.263 2.552,6.2 2.446,6.137 2.362,6.052 2.299,5.947 2.235,5.841 2.204,5.725 2.204,5.599 V 2.204 C 2.204,1.775 2.107,1.395 1.914,1.065 1.721,0.734 1.459,0.474 1.128,0.285 0.798,0.095 0.422,0 0,0"
       style="fill:#231f20;fill-opacity:1;fill-rule:nonzero;stroke:none"
       transform="matrix(1.3333333,0,0,-1.3333333,32.826133,459.4744)"
       clip-path="url(#clipPath13)" />
    <path
       id="path14"
       d="m 0,0 c -0.436,0 -0.819,0.1 -1.149,0.3 -0.331,0.201 -0.587,0.468 -0.77,0.802 -0.183,0.334 -0.274,0.701 -0.274,1.102 v 5.177 h 1.508 V 2.025 c 0,-0.19 0.066,-0.354 0.2,-0.491 C -0.352,1.397 -0.19,1.329 0,1.329 H 1.951 V 0 Z"
       style="fill:#231f20;fill-opacity:1;fill-rule:nonzero;stroke:none"
       transform="matrix(1.3333333,0,0,-1.3333333,44.199867,459.31987)"
       clip-path="url(#clipPath15)" />
    <path
       id="path16"
       d="m 0,0 c 0,-1.715 -1.403,-3.118 -3.118,-3.118 h -21.495 c -1.715,0 -3.118,1.403 -3.118,3.118 v 31.462 c 0,1.715 1.403,3.119 3.118,3.119 H -3.118 C -1.403,34.581 0,33.177 0,31.462 Z"
       style="fill:#231f20;fill-opacity:1;fill-rule:nonzero;stroke:none"
       transform="matrix(1.3333333,0,0,-1.3333333,47.2044,441.00333)"
       clip-path="url(#clipPath17)" />
    <path
       id="path18"
       d="M 0,0 9.845,-9.845"
       style="fill:none;stroke:#3953a4;stroke-width:0.25;stroke-linecap:butt;stroke-linejoin:miter;stroke-miterlimit:10;stroke-dasharray:none;stroke-opacity:1"
       transform="matrix(1.3333333,0,0,-1.3333333,22.236667,420.43747)"
       clip-path="url(#clipPath19)" />
    <path
       id="path20"
       d="M 0,0 -9.845,-9.845"
       style="fill:none;stroke:#3953a4;stroke-width:0.25;stroke-linecap:butt;stroke-linejoin:miter;stroke-miterlimit:10;stroke-dasharray:none;stroke-opacity:1"
       transform="matrix(1.3333333,0,0,-1.3333333,35.363333,420.43747)"
       clip-path="url(#clipPath21)" />
    <path
       id="path22"
       d="M 0,0 V -13.546"
       style="fill:none;stroke:#231f20;stroke-width:1;stroke-linecap:butt;stroke-linejoin:miter;stroke-miterlimit:10;stroke-dasharray:none;stroke-opacity:1"
       transform="matrix(1.3333333,0,0,-1.3333333,28.8,377.1004)"
       clip-path="url(#clipPath23)" />
    <path
       id="path24"
       d="m 0.98439688,-0.90139844 c 0,0.50390625 0.39843752,0.9023437525 0.90234372,0.9023437525 h 4.2539063 c 0.4570312,0 0.8203125,-0.3632812525 0.8203125,-0.8203125025 0,-0.45703121 -0.3632813,-0.82031251 -0.8203125,-0.82031251 H 2.7890844 v -5.7421875 c 0,-0.5039062 -0.3984375,-0.9023437 -0.9023438,-0.9023437 -0.5039062,0 -0.90234372,0.3984375 -0.90234372,0.9023437 z M 11.780295,0.14157031 c 2.53125,0 4.382813,-1.91015621 4.382813,-4.25390621 v -0.023437 c 0,-2.3320313 -1.828125,-4.21875 -4.359375,-4.21875 -2.5429689,0 -4.3828127,1.9101562 -4.3828127,4.2421875 v 0.023437 c 0,2.34375 1.8164063,4.23046871 4.3593747,4.23046871 z m 0.02344,-1.66406251 c -1.453125,0 -2.4960939,-1.171875 -2.4960939,-2.5898437 v -0.023437 c 0,-1.40625 1.0195309,-2.5546875 2.4726559,-2.5546875 1.453125,0 2.484375,1.171875 2.484375,2.578125 v 0.023437 c 0,1.4179687 -1.007812,2.5664062 -2.460937,2.5664062 z m 9.919922,1.66406251 c 1.230468,0 2.203125,-0.41015625 2.871093,-0.8203125 0.433594,-0.2578125 0.632813,-0.62109371 0.632813,-1.14843751 v -2.0039062 c 0,-0.5039063 -0.398438,-0.9023438 -0.902344,-0.9023438 h -2.0625 c -0.433594,0 -0.785156,0.3515625 -0.785156,0.7851563 0,0.4335937 0.351562,0.7734375 0.785156,0.7734375 h 1.21875 v 1.1835937 c -0.457031,0.328125 -1.042969,0.4921875 -1.699219,0.4921875 -1.453125,0 -2.496093,-1.1015625 -2.496093,-2.6132812 v -0.023437 c 0,-1.3945313 1.054687,-2.5546875 2.367187,-2.5546875 0.773438,0 1.300781,0.2109375 1.792969,0.5625 0.128906,0.09375 0.292969,0.1875 0.550781,0.1875 0.492188,0 0.890625,-0.3984375 0.890625,-0.890625 0,-0.3515625 -0.199219,-0.5976563 -0.375,-0.7265625 -0.738281,-0.515625 -1.558594,-0.796875 -2.800781,-0.796875 -2.496094,0 -4.3125,1.9101562 -4.3125,4.2421875 v 0.023437 c 0,2.4375 1.757812,4.23046871 4.324219,4.23046871 z M 4.5351781,11.165984 c 0.9140625,0 1.7460938,-0.257812 2.4375,-0.703125 l 0.4453125,0.398438 c 0.140625,0.140625 0.3515625,0.246094 0.5976563,0.246094 0.4804687,0 0.8554687,-0.386719 0.8554687,-0.855469 0,-0.2929689 -0.140625,-0.5156251 -0.328125,-0.6796876 L 8.1797094,9.2792656 c 0.46875,-0.6796875 0.7382812,-1.5 0.7382812,-2.3671875 v -0.023437 c 0,-2.3320312 -1.828125,-4.21875 -4.359375,-4.21875 -2.5429687,0 -4.38281247,1.9101563 -4.38281247,4.2421875 v 0.023437 c 0,2.34375 1.81640627,4.2304684 4.35937497,4.2304684 z M 4.7812719,8.5527031 5.6367406,9.2792656 c -0.3164062,0.1523438 -0.6796875,0.2226563 -1.078125,0.2226563 -1.453125,0 -2.4960937,-1.171875 -2.4960937,-2.5898438 v -0.023437 c 0,-1.40625 1.0195312,-2.5546875 2.4726562,-2.5546875 1.453125,0 2.484375,1.171875 2.484375,2.578125 v 0.023437 c 0,0.4101563 -0.082031,0.796875 -0.2226562,1.125 L 5.8945531,7.2519219 C 5.7070531,7.0878594 5.5429906,7.0058281 5.2968969,7.0058281 c -0.46875,0 -0.84375,0.3867188 -0.84375,0.8554688 0,0.3046875 0.140625,0.5273437 0.328125,0.6914062 z M 10.52053,10.205047 c 0,0.492187 0.398437,0.890625 0.890625,0.890625 0.492187,0 0.890625,-0.398438 0.890625,-0.890625 V 5.7987969 l 3.621093,4.7460941 c 0.246094,0.316406 0.503907,0.527343 0.9375,0.527343 h 0.05859 c 0.503906,0 0.902344,-0.398437 0.902344,-0.902343 V 3.6308281 c 0,-0.4921875 -0.398438,-0.890625 -0.890625,-0.890625 -0.492188,0 -0.890625,0.3984375 -0.890625,0.890625 V 7.8612969 L 12.559592,3.2909844 C 12.30178,2.9745781 12.043967,2.7636406 11.610373,2.7636406 h -0.1875 c -0.503906,0 -0.902343,0.3984375 -0.902343,0.9023438 z m 11.185547,-0.01172 c 0,0.503906 0.410156,0.902344 0.914062,0.902344 0.503906,0 0.902344,-0.398438 0.902344,-0.902344 V 4.4745781 h 1.734375 c 0.457031,0 0.832031,-0.375 0.832031,-0.8320312 0,-0.4570313 -0.375,-0.8320313 -0.832031,-0.8320313 h -5.285156 c -0.457032,0 -0.832032,0.375 -0.832032,0.8320313 0,0.4570312 0.375,0.8320312 0.832032,0.8320312 h 1.734375 z m 0,0"
       style="fill:#231f20;fill-opacity:1;fill-rule:nonzero;stroke:none"
       aria-label="LOG&#10;QNT"
       transform="matrix(1.3333333,0,0,1.3333333,11.476533,36.057333)" />
    <path
       id="path25"
       d="m 2.5429734,0.06972969 h 0.046875 c 0.2460938,0 0.4101563,-0.12890625 0.4921875,-0.3515625 L 4.8046922,-4.3365203 c 0.023437,-0.046875 0.046875,-0.1171875 0.046875,-0.1875 0,-0.2226563 -0.1875,-0.4101563 -0.4335938,-0.4101563 -0.1992187,0 -0.3515625,0.1289063 -0.4101562,0.28125 l -1.4296875,3.5625 -1.4179688,-3.5390625 c -0.070312,-0.1757812 -0.21093746,-0.3046875 -0.44531246,-0.3046875 -0.234375,0 -0.43359375,0.1875 -0.43359375,0.421875 0,0.082031 0.0234375,0.140625 0.0585938,0.1992188 l 1.71093741,4.03124999 c 0.09375,0.22265625 0.2460939,0.3515625 0.4921875,0.3515625 z m 1.7490235,0.5390625 c 0,0.17578125 0.1523437,0.31640625 0.3398437,0.31640625 0.140625,0 0.234375,-0.0703125 0.2929688,-0.1875 L 7.7959031,-5.1333953 c 0.011719,-0.035156 0.035156,-0.1054688 0.035156,-0.1640625 0,-0.1757813 -0.140625,-0.3164063 -0.328125,-0.3164063 -0.140625,0 -0.2460938,0.070312 -0.3046875,0.1875 l -2.859375,5.87109379 c -0.023437,0.0351563 -0.046875,0.10546875 -0.046875,0.1640625 z M 10.623052,0.08144844 c 1.5,0 2.566406,-1.14843754 2.566406,-2.53125004 v -0.011719 c 0,-1.3828125 -1.042969,-2.5195313 -2.554688,-2.5195313 -1.4999997,0 -2.5664059,1.1484375 -2.5664059,2.53125 v 0.011719 c 0,1.3828125 1.0546875,2.51953124 2.5546879,2.51953134 z m 0.01172,-0.796875 c -0.9726559,0 -1.6640622,-0.78515624 -1.6640622,-1.73437504 v -0.011719 c 0,-0.9492188 0.6796875,-1.734375 1.6523442,-1.734375 0.972656,0 1.664062,0.796875 1.664062,1.7460937 v 0.011719 c 0,0.9492187 -0.679687,1.72265624 -1.652344,1.72265634 z m 5.879883,0.796875 c 0.785156,0 1.3125,-0.24609375 1.769531,-0.65625 0.08203,-0.0703125 0.140625,-0.17578125 0.140625,-0.3046875 0,-0.22265624 -0.1875,-0.39843754 -0.398437,-0.39843754 -0.105469,0 -0.199219,0.035156 -0.257813,0.09375 -0.363281,0.30468754 -0.714843,0.46875004 -1.230468,0.46875004 -0.9375,0 -1.617188,-0.77343754 -1.617188,-1.73437504 v -0.011719 c 0,-0.9609375 0.691406,-1.734375 1.617188,-1.734375 0.46875,0 0.832031,0.1757812 1.171875,0.4453125 0.05859,0.046875 0.140625,0.082031 0.257812,0.082031 0.234375,0 0.421875,-0.1757812 0.421875,-0.421875 0,-0.1523437 -0.07031,-0.2695312 -0.164062,-0.3398437 -0.421875,-0.328125 -0.925782,-0.5507813 -1.675782,-0.5507813 -1.488281,0 -2.53125,1.1367188 -2.53125,2.53125 v 0.011719 c 0,1.40625 1.066407,2.51953124 2.496094,2.51953154 z m 4.086914,-0.46875 c 0,0.234375 0.199219,0.421875 0.433594,0.421875 0.246094,0 0.433594,-0.1875 0.433594,-0.421875 V -4.1021453 h 1.207031 c 0.210937,0 0.386719,-0.1757813 0.386719,-0.3984375 0,-0.2109375 -0.175782,-0.3984375 -0.386719,-0.3984375 h -3.257813 c -0.222656,0 -0.398437,0.1875 -0.398437,0.3984375 0,0.2226562 0.175781,0.3984375 0.398437,0.3984375 h 1.183594 z m 0,0"
       style="fill:#231f20;fill-opacity:1;fill-rule:nonzero;stroke:none"
       aria-label="V/OCT"
       transform="matrix(1.3333333,0,0,1.3333333,13.5664,345.16093)" />
    <path
       id="path26"
       d="m 2.7528922,0.08199375 c 1.40625,0 2.4257812,-1.06640625 2.4257812,-2.35546875 v -0.011719 c 0,-1.3007813 -1.0078125,-2.34375 -2.4140625,-2.34375 -1.3945312,0 -2.42578121,1.0546875 -2.42578121,2.3554687 v 0.011719 c 0,1.28906245 1.00781251,2.34374995 2.41406251,2.34375005 z m 0.011719,-0.92578125 c -0.796875,0 -1.3710937,-0.65625 -1.3710937,-1.4296875 v -0.011719 c 0,-0.7851563 0.5507812,-1.4179688 1.359375,-1.4179688 0.8085937,0 1.3828125,0.6445313 1.3828125,1.4296875 v 0.011719 c 0,0.7734375 -0.5625,1.4179687 -1.3710938,1.4179688 z M 8.0849234,0.070275 c 1.21875,0 1.9921876,-0.6796875 1.9921876,-2.0507812 v -2.109375 c 0,-0.28125 -0.2226563,-0.5039063 -0.5039063,-0.5039063 -0.28125,0 -0.4921875,0.2226563 -0.4921875,0.5039063 V -1.94535 c 0,0.7265625 -0.375,1.08984375 -0.984375,1.08984375 -0.609375,0 -0.984375,-0.37499995 -0.984375,-1.12499995 v -2.109375 c 0,-0.28125 -0.2226563,-0.5039063 -0.5039063,-0.5039063 -0.28125,0 -0.4921875,0.2226563 -0.4921875,0.5039063 V -1.94535 c 0,1.3359375 0.7382813,2.015625 1.96875,2.015625 z m 4.1806646,-0.52734375 c 0,0.26953125 0.222656,0.4921875 0.503906,0.4921875 0.28125,0 0.503906,-0.22265625 0.503906,-0.4921875 V -3.63285 h 0.960938 c 0.246093,0 0.457031,-0.1992187 0.457031,-0.4570312 0,-0.2578125 -0.210938,-0.4570313 -0.457031,-0.4570313 H 11.30465 c -0.257812,0 -0.457031,0.1992188 -0.457031,0.4570313 0,0.2578125 0.199219,0.4570312 0.457031,0.4570312 h 0.960938 z m 0,0"
       style="fill:#e3e4e4;fill-opacity:1;fill-rule:nonzero;stroke:none"
       aria-label="OUT"
       transform="matrix(1.3333333,0,0,1.3333333,18.802133,407.4688)" />
  </g>
</svg>
